<svg version="1.1" viewBox="0.0 0.0 751.2887139107612 419.17847769028873" fill="none" stroke="none" stroke-linecap="square" stroke-miterlimit="10" xmlns:xlink="http://www.w3.org/1999/xlink" xmlns="http://www.w3.org/2000/svg"><clipPath id="p.0"><path d="m0 0l751.2887 0l0 419.17847l-751.2887 0l0 -419.17847z" clip-rule="nonzero"/></clipPath><g clip-path="url(#p.0)"><path fill="#000000" fill-opacity="0.0" d="m0 0l751.2887 0l0 419.17847l-751.2887 0z" fill-rule="evenodd"/><path fill="#000000" fill-opacity="0.0" d="m396.12064 153.03006l370.03012 0l0 258.56757l-370.03012 0z" fill-rule="evenodd"/><path fill="#ec4d37" d="m454.05814 353.2513q-11.640625 0 -19.25 -4.234375q-7.59375 -4.25 -11.4375 -12.734375q-3.84375 -8.484375 -3.84375 -21.125l0 -52.875q0 -4.15625 2.0625 -6.125q2.078125 -1.9687653 5.828125 -1.9687653q3.953125 0 6.015625 1.9687653q2.078125 1.96875 2.078125 6.125l0 52.6875q0 12.625 5.21875 18.84375q5.234375 6.21875 16.484375 6.21875q12.234375 0 19.921875 -8.28125q7.703125 -8.296875 7.703125 -21.71875l0 -47.75q0 -4.15625 2.0625 -6.125q2.078125 -1.9687653 6.03125 -1.9687653q3.75 0 5.8125 1.9687653q2.078125 1.96875 2.078125 6.125l0 82.28125q0 8.28125 -7.6875 8.28125q-3.75 0 -5.828125 -2.15625q-2.078125 -2.171875 -2.078125 -6.125l0 -17.953125l2.578125 2.765625q-3.953125 11.640625 -12.9375 17.765625q-8.96875 6.109375 -20.8125 6.109375zm106.95108 0q-9.859375 0 -17.65625 -3.84375q-7.796875 -3.859375 -12.34375 -10.5625q-4.53125 -6.71875 -4.53125 -15.0q0 -10.65625 5.421875 -16.765625q5.4375 -6.125 17.953125 -8.6875q12.53125 -2.5625 34.25 -2.5625l8.875 0l0 10.453125l-8.6875 0q-15.984375 0 -25.15625 1.484375q-9.171875 1.46875 -12.828125 5.03125q-3.640625 3.546875 -3.640625 10.0625q0 8.09375 5.609375 13.21875q5.625 5.125 15.296875 5.125q7.890625 0 13.90625 -3.75q6.03125 -3.75 9.484375 -10.25q3.453125 -6.515625 3.453125 -15.0l0 -22.5q0 -12.234375 -4.9375 -17.65625q-4.9375 -5.421875 -16.1875 -5.421875q-6.90625 0 -13.8125 1.78125q-6.90625 1.765625 -14.59375 5.703125q-2.765625 1.390625 -4.75 0.90625q-1.96875 -0.5 -3.15625 -2.078125q-1.171875 -1.578125 -1.375 -3.65625q-0.1875 -2.078125 0.890625 -4.046875q1.09375 -1.96875 3.453125 -3.15625q8.6875 -4.34375 17.171875 -6.3125153q8.484375 -1.96875 16.171875 -1.96875q12.4375 0 20.53125 4.0468903q8.09375 4.03125 12.03125 12.234375q3.953125 8.1875 3.953125 21.015625l0 53.46875q0 3.953125 -1.875 6.125q-1.875 2.15625 -5.421875 2.15625q-3.75 0 -5.734375 -2.15625q-1.96875 -2.171875 -1.96875 -6.125l0 -15.390625l1.78125 0q-1.578125 7.5 -6.03125 12.828125q-4.4375 5.328125 -10.953125 8.296875q-6.5 2.953125 -14.59375 2.953125zm82.28699 -0.796875q-3.953125 0 -5.921875 -2.265625q-1.96875 -2.265625 -1.96875 -6.421875l0 -80.703125q0 -4.140625 1.96875 -6.3125q1.96875 -2.1718903 5.921875 -2.1718903q3.75 0 5.921875 2.1718903q2.171875 2.171875 2.171875 6.3125l0 80.703125q0 4.15625 -2.078125 6.421875q-2.0625 2.265625 -6.015625 2.265625zm0 -119.968765q-4.9375 0 -7.703125 -2.65625q-2.75 -2.671875 -2.75 -7.21875q0 -4.734375 2.75 -7.203125q2.765625 -2.46875 7.703125 -2.46875q5.125 0 7.78125 2.46875q2.671875 2.46875 2.671875 7.203125q0 4.546875 -2.671875 7.21875q-2.65625 2.65625 -7.78125 2.65625z" fill-rule="nonzero"/><path fill="#ec4d37" d="m37.72686 191.67477l0 0c0 -95.78775 80.22936 -173.43906 179.1973 -173.43906l0 0c47.526077 0 93.105606 18.272991 126.711624 50.799126c33.606018 32.52614 52.485657 76.64104 52.485657 122.63994l0 0c0 95.78775 -80.22934 173.43906 -179.19728 173.43906l0 0c-98.967926 0 -179.1973 -77.651306 -179.1973 -173.43906z" fill-rule="evenodd"/><path fill="#ec4d37" d="m251.38078 311.22437l47.912094 -31.825989l34.43396 51.697052l-47.91211 31.82602z" fill-rule="evenodd"/><path fill="#ec4d37" d="m276.93265 351.21597l52.712555 -34.987823l28.133362 42.165405l-52.712555 34.987854z" fill-rule="evenodd"/><path fill="#ffffff" d="m93.24339 191.67894l0 0c0 -68.78492 55.373703 -124.546104 123.68063 -124.546104l0 0c32.80214 0 64.26079 13.12178 87.4554 36.478706c23.194641 23.356926 36.22522 55.035706 36.22522 88.0674l0 0c0 68.7849 -55.373688 124.5461 -123.68062 124.5461l0 0c-68.30693 0 -123.68063 -55.7612 -123.68063 -124.5461z" fill-rule="evenodd"/></g></svg>