<svg version="1.1" viewBox="0.0 0.0 751.2887139107612 419.17847769028873" fill="none" stroke="none" stroke-linecap="square" stroke-miterlimit="10" xmlns:xlink="http://www.w3.org/1999/xlink" xmlns="http://www.w3.org/2000/svg"><clipPath id="p.0"><path d="m0 0l751.2887 0l0 419.17847l-751.2887 0l0 -419.17847z" clip-rule="nonzero"/></clipPath><g clip-path="url(#p.0)"><path fill="#000000" fill-opacity="0.0" d="m0 0l751.2887 0l0 419.17847l-751.2887 0z" fill-rule="evenodd"/><path fill="#ec4d37" d="m246.19685 74.66227l0 0c0 -23.613903 19.142838 -42.75676 42.75676 -42.75676l181.10065 0l0 0c11.339813 0 22.215149 4.504717 30.233612 12.523165c8.018433 8.018448 12.523163 18.893799 12.523163 30.233593l0 171.02191c0 23.613907 -19.142853 42.75676 -42.756775 42.75676l-181.10065 0c-23.613922 0 -42.75676 -19.142853 -42.75676 -42.75676z" fill-rule="evenodd"/><path fill="#ffffff" d="m307.8819 156.76903l0 0c0 -38.285942 32.066284 -69.32283 71.62204 -69.32283l0 0c18.995361 0 37.212708 7.3036346 50.64444 20.304184c13.431732 13.000557 20.9776 30.633087 20.9776 49.018646l0 0c0 38.28595 -32.066284 69.32283 -71.62204 69.32283l0 0c-39.555756 0 -71.62204 -31.03688 -71.62204 -69.32283z" fill-rule="evenodd"/><path fill="#ec4d37" d="m330.07086 156.76903l0 0c0 -27.492477 22.131958 -49.779526 49.433075 -49.779526l0 0c13.110474 0 25.68396 5.2446136 34.954468 14.580086c9.270477 9.335472 14.478607 21.997093 14.478607 35.19944l0 0c0 27.492477 -22.131958 49.779526 -49.433075 49.779526l0 0c-27.301117 0 -49.433075 -22.287048 -49.433075 -49.779526z" fill-rule="evenodd"/><path fill="#ffffff" d="m403.48822 220.53246l21.070862 -13.984253l11.24408 16.850403l-21.070862 13.984253z" fill-rule="evenodd"/></g></svg>